# xmcd CD database file
#
# Track frame offsets:
#	150
#	23669
#	40575
#	67415
#	89113
#	116183
#	134792
#	157755
#	173602
#
# Disc length: 2589 seconds
#
# Revision: 0
# Processed by: cddbd v1.5.2PL0 Copyright (c) Steve Scherf et al.
# Submitted via: CDex 1.51
#
DISCID=7b0a1b09
DTITLE=Black Fast - Spectre of Ruin
DYEAR=2018
DGENRE=Thrash Metal
TTITLE0=Cloak of Lies
TTITLE1=Silhouette Usurper
TTITLE2=Scarecrow and Spectre
TTITLE3=Phantom I Am
TTITLE4=Mist of Ruin
TTITLE5=Temple of Leviathan
TTITLE6=Famine Angel
TTITLE7=Crescent Aberration
TTITLE8=Husk
EXTD=YEAR: 2018
EXTT0=
EXTT1=
EXTT2=
EXTT3=
EXTT4=
EXTT5=
EXTT6=
EXTT7=
EXTT8=
PLAYORDER=
